<svg xmlns="http://www.w3.org/2000/svg" xmlns:xlink="http://www.w3.org/1999/xlink" width="500" zoomAndPan="magnify" viewBox="0 0 375 225" height="300" preserveAspectRatio="xMidYMid meet" version="1.0"><defs><g/></defs><g fill="#cb1f1f" fill-opacity="1"><g transform="translate(114.840616, 151.946671)"><g><path d="M 142.644531 -58.113281 C 142.644531 -95.285156 107.738281 -120.378906 72.832031 -120.378906 C 37.738281 -120.378906 2.640625 -95.285156 2.640625 -58.113281 C 2.640625 -20.753906 36.792969 3.960938 72.644531 3.960938 C 108.304688 3.960938 142.644531 -20.753906 142.644531 -58.113281 Z M 73.019531 -86.417969 C 88.304688 -86.417969 99.246094 -73.964844 99.246094 -58.113281 C 99.246094 -41.511719 87.925781 -30 72.832031 -30 C 57.546875 -30 46.039062 -41.511719 46.039062 -58.113281 C 46.039062 -74.339844 57.925781 -86.417969 73.019531 -86.417969 Z M 73.019531 -86.417969 "/></g></g></g><path fill="#cb1f1f" d="M 114.839844 88.417969 L 260.132812 88.417969 L 260.132812 106.371094 L 114.839844 106.371094 Z M 114.839844 88.417969 " fill-opacity="1" fill-rule="nonzero"/><g fill="#a6a6a6" fill-opacity="1"><g transform="translate(31.363149, 192.411564)"><g><path d="M 5.96875 0.199219 C 7.863281 0.199219 9.441406 -0.597656 10.4375 -2.273438 L 8.441406 -3.191406 C 7.84375 -2.515625 7.183594 -2.074219 5.988281 -2.074219 C 4.589844 -2.074219 3.054688 -3.132812 3.054688 -5.167969 C 3.054688 -7.246094 4.589844 -8.300781 5.988281 -8.300781 C 7.183594 -8.300781 7.84375 -7.84375 8.441406 -7.164062 L 10.398438 -8.082031 C 9.441406 -9.757812 7.84375 -10.578125 5.96875 -10.578125 C 3.613281 -10.578125 0.558594 -8.78125 0.558594 -5.167969 C 0.558594 -1.535156 3.613281 0.199219 5.96875 0.199219 Z M 5.96875 0.199219 "/></g></g></g><g fill="#a6a6a6" fill-opacity="1"><g transform="translate(46.472084, 192.411564)"><g><path d="M 7.265625 -10.539062 C 5.347656 -10.539062 4.070312 -9.320312 3.632812 -7.761719 L 3.632812 -10.378906 L 1.058594 -10.378906 L 1.058594 0 L 3.632812 0 L 3.632812 -4.609375 C 3.832031 -6.707031 5.410156 -8.082031 7.34375 -8.082031 C 7.523438 -8.082031 7.761719 -8.082031 7.984375 -8.042969 L 7.984375 -10.496094 C 7.742188 -10.539062 7.523438 -10.539062 7.265625 -10.539062 Z M 7.265625 -10.539062 "/></g></g></g><g fill="#a6a6a6" fill-opacity="1"><g transform="translate(59.126295, 192.411564)"><g><path d="M 5.867188 -10.578125 C 3.53125 -10.578125 0.558594 -8.78125 0.558594 -5.167969 C 0.558594 -1.578125 3.453125 0.199219 6.046875 0.199219 C 8.042969 0.199219 9.320312 -0.417969 10.238281 -1.398438 L 8.820312 -2.773438 C 8.0625 -2.296875 7.464844 -1.976562 6.125 -1.976562 C 4.648438 -1.976562 3.453125 -2.734375 3.113281 -4.25 L 10.875 -4.25 C 11.457031 -8.78125 8.222656 -10.578125 5.867188 -10.578125 Z M 5.867188 -8.382812 C 7.023438 -8.382812 8.34375 -7.644531 8.582031 -6.125 L 3.132812 -6.125 C 3.492188 -7.625 4.710938 -8.382812 5.867188 -8.382812 Z M 5.867188 -8.382812 "/></g></g></g><g fill="#a6a6a6" fill-opacity="1"><g transform="translate(74.714198, 192.411564)"><g><path d="M 5.6875 0.199219 C 7.464844 0.199219 8.542969 -0.816406 8.882812 -1.476562 L 9.019531 -1.476562 L 9.019531 0 L 11.574219 0 L 11.574219 -10.378906 L 9.019531 -10.378906 L 9.019531 -8.902344 L 8.882812 -8.902344 C 8.542969 -9.558594 7.464844 -10.578125 5.6875 -10.578125 C 3.371094 -10.578125 0.558594 -8.839844 0.558594 -5.1875 C 0.558594 -1.535156 3.371094 0.199219 5.6875 0.199219 Z M 6.046875 -2.074219 C 4.550781 -2.074219 3.054688 -3.113281 3.054688 -5.1875 C 3.054688 -7.265625 4.550781 -8.300781 6.046875 -8.300781 C 7.542969 -8.300781 9.082031 -7.265625 9.082031 -5.1875 C 9.082031 -3.113281 7.542969 -2.074219 6.046875 -2.074219 Z M 6.046875 -2.074219 "/></g></g></g><g fill="#a6a6a6" fill-opacity="1"><g transform="translate(91.439657, 192.411564)"><g><path d="M 6.6875 -8.261719 L 6.6875 -10.378906 L 4.46875 -10.378906 L 4.46875 -13.03125 L 1.914062 -13.03125 L 1.914062 -10.378906 L 0.460938 -10.378906 L 0.460938 -8.261719 L 1.914062 -8.261719 L 1.914062 -2.574219 C 1.914062 -0.417969 3.132812 0.121094 4.75 0.121094 C 5.589844 0.121094 6.246094 -0.0585938 6.6875 -0.28125 L 6.6875 -2.375 C 6.246094 -2.234375 5.886719 -2.15625 5.46875 -2.15625 C 4.628906 -2.15625 4.46875 -2.613281 4.46875 -3.132812 L 4.46875 -8.261719 Z M 6.6875 -8.261719 "/></g></g></g><g fill="#a6a6a6" fill-opacity="1"><g transform="translate(102.856534, 192.411564)"><g><path d="M 5.867188 -10.578125 C 3.53125 -10.578125 0.558594 -8.78125 0.558594 -5.167969 C 0.558594 -1.578125 3.453125 0.199219 6.046875 0.199219 C 8.042969 0.199219 9.320312 -0.417969 10.238281 -1.398438 L 8.820312 -2.773438 C 8.0625 -2.296875 7.464844 -1.976562 6.125 -1.976562 C 4.648438 -1.976562 3.453125 -2.734375 3.113281 -4.25 L 10.875 -4.25 C 11.457031 -8.78125 8.222656 -10.578125 5.867188 -10.578125 Z M 5.867188 -8.382812 C 7.023438 -8.382812 8.34375 -7.644531 8.582031 -6.125 L 3.132812 -6.125 C 3.492188 -7.625 4.710938 -8.382812 5.867188 -8.382812 Z M 5.867188 -8.382812 "/></g></g></g><g fill="#a6a6a6" fill-opacity="1"><g transform="translate(118.444439, 192.411564)"><g><path d="M 2.175781 0.199219 C 2.972656 0.199219 3.652344 -0.398438 3.652344 -1.277344 C 3.652344 -2.15625 2.972656 -2.753906 2.175781 -2.753906 C 1.378906 -2.753906 0.699219 -2.15625 0.699219 -1.277344 C 0.699219 -0.398438 1.378906 0.199219 2.175781 0.199219 Z M 2.175781 0.199219 "/></g></g></g><g fill="#000000" fill-opacity="1"><g transform="translate(126.870958, 192.411564)"><g/></g></g><g fill="#cb1f1f" fill-opacity="1"><g transform="translate(135.800645, 192.411564)"><g><path d="M 9.019531 -14.109375 L 9.019531 -8.902344 L 8.882812 -8.902344 C 8.542969 -9.558594 7.464844 -10.578125 5.6875 -10.578125 C 3.371094 -10.578125 0.558594 -8.839844 0.558594 -5.1875 C 0.558594 -1.535156 3.371094 0.199219 5.6875 0.199219 C 7.464844 0.199219 8.542969 -0.816406 8.882812 -1.476562 L 9.019531 -1.476562 L 9.019531 0 L 11.574219 0 L 11.574219 -14.109375 Z M 6.046875 -2.074219 C 4.550781 -2.074219 3.054688 -3.113281 3.054688 -5.1875 C 3.054688 -7.265625 4.550781 -8.300781 6.046875 -8.300781 C 7.542969 -8.300781 9.082031 -7.265625 9.082031 -5.1875 C 9.082031 -3.113281 7.542969 -2.074219 6.046875 -2.074219 Z M 6.046875 -2.074219 "/></g></g></g><g fill="#cb1f1f" fill-opacity="1"><g transform="translate(152.526103, 192.411564)"><g><path d="M 5.867188 -10.578125 C 3.53125 -10.578125 0.558594 -8.78125 0.558594 -5.167969 C 0.558594 -1.578125 3.453125 0.199219 6.046875 0.199219 C 8.042969 0.199219 9.320312 -0.417969 10.238281 -1.398438 L 8.820312 -2.773438 C 8.0625 -2.296875 7.464844 -1.976562 6.125 -1.976562 C 4.648438 -1.976562 3.453125 -2.734375 3.113281 -4.25 L 10.875 -4.25 C 11.457031 -8.78125 8.222656 -10.578125 5.867188 -10.578125 Z M 5.867188 -8.382812 C 7.023438 -8.382812 8.34375 -7.644531 8.582031 -6.125 L 3.132812 -6.125 C 3.492188 -7.625 4.710938 -8.382812 5.867188 -8.382812 Z M 5.867188 -8.382812 "/></g></g></g><g fill="#cb1f1f" fill-opacity="1"><g transform="translate(168.114007, 192.411564)"><g><path d="M 4.53125 0.199219 C 6.664062 0.199219 8.542969 -0.898438 8.542969 -3.011719 C 8.542969 -4.890625 7.144531 -5.527344 5.589844 -6.085938 L 4.371094 -6.507812 C 3.691406 -6.765625 3.371094 -7.105469 3.371094 -7.582031 C 3.371094 -8.164062 3.910156 -8.523438 4.550781 -8.523438 C 5.207031 -8.523438 5.707031 -8.183594 6.046875 -7.425781 L 8.183594 -8.003906 C 7.625 -9.558594 6.347656 -10.578125 4.449219 -10.578125 C 2.554688 -10.578125 0.898438 -9.460938 0.898438 -7.605469 C 0.898438 -6.246094 1.777344 -5.207031 3.773438 -4.492188 L 4.96875 -4.070312 C 5.6875 -3.792969 6.046875 -3.433594 6.046875 -2.972656 C 6.046875 -2.335938 5.367188 -1.855469 4.53125 -1.855469 C 3.492188 -1.855469 2.8125 -2.515625 2.535156 -3.3125 L 0.5 -2.675781 C 0.917969 -0.878906 2.414062 0.199219 4.53125 0.199219 Z M 4.53125 0.199219 "/></g></g></g><g fill="#cb1f1f" fill-opacity="1"><g transform="translate(181.32702, 192.411564)"><g><path d="M 1.058594 -11.65625 L 3.632812 -11.65625 L 3.632812 -14.109375 L 1.058594 -14.109375 Z M 1.058594 0 L 3.632812 0 L 3.632812 -10.378906 L 1.058594 -10.378906 Z M 1.058594 0 "/></g></g></g><g fill="#cb1f1f" fill-opacity="1"><g transform="translate(190.089612, 192.411564)"><g><path d="M 9.019531 -10.378906 L 9.019531 -8.902344 L 8.882812 -8.902344 C 8.542969 -9.558594 7.464844 -10.578125 5.6875 -10.578125 C 3.371094 -10.578125 0.558594 -8.839844 0.558594 -5.1875 C 0.558594 -1.535156 3.371094 0.199219 5.6875 0.199219 C 7.464844 0.199219 8.542969 -0.816406 8.882812 -1.476562 L 9.019531 -1.476562 L 9.019531 0 C 9.019531 0.996094 8.203125 1.976562 6.367188 1.976562 C 5.050781 1.976562 4.070312 1.714844 3.492188 1.378906 L 3.492188 3.492188 C 4.070312 3.832031 5.089844 4.109375 6.367188 4.109375 C 8.5625 4.109375 11.574219 3.132812 11.574219 0 L 11.574219 -10.378906 Z M 6.046875 -2.074219 C 4.550781 -2.074219 3.054688 -3.113281 3.054688 -5.1875 C 3.054688 -7.265625 4.550781 -8.300781 6.046875 -8.300781 C 7.542969 -8.300781 9.082031 -7.265625 9.082031 -5.1875 C 9.082031 -3.113281 7.542969 -2.074219 6.046875 -2.074219 Z M 6.046875 -2.074219 "/></g></g></g><g fill="#cb1f1f" fill-opacity="1"><g transform="translate(206.815071, 192.411564)"><g><path d="M 1.058594 0 L 3.632812 0 L 3.632812 -6.125 C 3.671875 -6.867188 4.550781 -8.324219 6.125 -8.324219 C 7.304688 -8.324219 8.363281 -7.625 8.363281 -5.828125 L 8.363281 0 L 10.9375 0 L 10.9375 -5.988281 C 10.9375 -9.242188 8.960938 -10.578125 7.066406 -10.578125 C 4.949219 -10.578125 3.832031 -8.941406 3.632812 -8.34375 L 3.632812 -10.378906 L 1.058594 -10.378906 Z M 1.058594 0 "/></g></g></g><g fill="#cb1f1f" fill-opacity="1"><g transform="translate(222.822071, 192.411564)"><g><path d="M 2.175781 0.199219 C 2.972656 0.199219 3.652344 -0.398438 3.652344 -1.277344 C 3.652344 -2.15625 2.972656 -2.753906 2.175781 -2.753906 C 1.378906 -2.753906 0.699219 -2.15625 0.699219 -1.277344 C 0.699219 -0.398438 1.378906 0.199219 2.175781 0.199219 Z M 2.175781 0.199219 "/></g></g></g><g fill="#000000" fill-opacity="1"><g transform="translate(231.249863, 192.411564)"><g/></g></g><g fill="#ffefef" fill-opacity="1"><g transform="translate(240.179551, 192.411564)"><g><path d="M 9.019531 -14.109375 L 9.019531 -8.902344 L 8.882812 -8.902344 C 8.542969 -9.558594 7.464844 -10.578125 5.6875 -10.578125 C 3.371094 -10.578125 0.558594 -8.839844 0.558594 -5.1875 C 0.558594 -1.535156 3.371094 0.199219 5.6875 0.199219 C 7.464844 0.199219 8.542969 -0.816406 8.882812 -1.476562 L 9.019531 -1.476562 L 9.019531 0 L 11.574219 0 L 11.574219 -14.109375 Z M 6.046875 -2.074219 C 4.550781 -2.074219 3.054688 -3.113281 3.054688 -5.1875 C 3.054688 -7.265625 4.550781 -8.300781 6.046875 -8.300781 C 7.542969 -8.300781 9.082031 -7.265625 9.082031 -5.1875 C 9.082031 -3.113281 7.542969 -2.074219 6.046875 -2.074219 Z M 6.046875 -2.074219 "/></g></g></g><g fill="#ffefef" fill-opacity="1"><g transform="translate(256.905008, 192.411564)"><g><path d="M 5.867188 -10.578125 C 3.53125 -10.578125 0.558594 -8.78125 0.558594 -5.167969 C 0.558594 -1.578125 3.453125 0.199219 6.046875 0.199219 C 8.042969 0.199219 9.320312 -0.417969 10.238281 -1.398438 L 8.820312 -2.773438 C 8.0625 -2.296875 7.464844 -1.976562 6.125 -1.976562 C 4.648438 -1.976562 3.453125 -2.734375 3.113281 -4.25 L 10.875 -4.25 C 11.457031 -8.78125 8.222656 -10.578125 5.867188 -10.578125 Z M 5.867188 -8.382812 C 7.023438 -8.382812 8.34375 -7.644531 8.582031 -6.125 L 3.132812 -6.125 C 3.492188 -7.625 4.710938 -8.382812 5.867188 -8.382812 Z M 5.867188 -8.382812 "/></g></g></g><g fill="#ffefef" fill-opacity="1"><g transform="translate(272.492912, 192.411564)"><g><path d="M 5.007812 0 L 7.34375 0 L 11.875 -10.378906 L 9.242188 -10.378906 L 6.1875 -3.09375 L 3.132812 -10.378906 L 0.5 -10.378906 Z M 5.007812 0 "/></g></g></g><g fill="#ffefef" fill-opacity="1"><g transform="translate(288.938973, 192.411564)"><g><path d="M 5.867188 -10.578125 C 3.53125 -10.578125 0.558594 -8.78125 0.558594 -5.167969 C 0.558594 -1.578125 3.453125 0.199219 6.046875 0.199219 C 8.042969 0.199219 9.320312 -0.417969 10.238281 -1.398438 L 8.820312 -2.773438 C 8.0625 -2.296875 7.464844 -1.976562 6.125 -1.976562 C 4.648438 -1.976562 3.453125 -2.734375 3.113281 -4.25 L 10.875 -4.25 C 11.457031 -8.78125 8.222656 -10.578125 5.867188 -10.578125 Z M 5.867188 -8.382812 C 7.023438 -8.382812 8.34375 -7.644531 8.582031 -6.125 L 3.132812 -6.125 C 3.492188 -7.625 4.710938 -8.382812 5.867188 -8.382812 Z M 5.867188 -8.382812 "/></g></g></g><g fill="#ffefef" fill-opacity="1"><g transform="translate(304.526879, 192.411564)"><g><path d="M 1.058594 0 L 3.632812 0 L 3.632812 -14.109375 L 1.058594 -14.109375 Z M 1.058594 0 "/></g></g></g><g fill="#ffefef" fill-opacity="1"><g transform="translate(313.289471, 192.411564)"><g><path d="M 5.988281 0.199219 C 8.363281 0.199219 11.414062 -1.535156 11.414062 -5.167969 C 11.414062 -8.78125 8.363281 -10.578125 5.988281 -10.578125 C 3.613281 -10.578125 0.558594 -8.78125 0.558594 -5.167969 C 0.558594 -1.535156 3.613281 0.199219 5.988281 0.199219 Z M 5.988281 -2.074219 C 4.589844 -2.074219 3.054688 -3.132812 3.054688 -5.167969 C 3.054688 -7.246094 4.589844 -8.300781 5.988281 -8.300781 C 7.402344 -8.300781 8.941406 -7.246094 8.941406 -5.167969 C 8.941406 -3.132812 7.402344 -2.074219 5.988281 -2.074219 Z M 5.988281 -2.074219 "/></g></g></g><g fill="#ffefef" fill-opacity="1"><g transform="translate(329.356346, 192.411564)"><g><path d="M 6.964844 -10.578125 C 5.1875 -10.578125 4.089844 -9.558594 3.753906 -8.902344 L 3.632812 -8.902344 L 3.632812 -10.378906 L 1.058594 -10.378906 L 1.058594 3.792969 L 3.632812 3.792969 L 3.632812 -1.476562 L 3.753906 -1.476562 C 4.089844 -0.816406 5.1875 0.199219 6.964844 0.199219 C 9.28125 0.199219 12.074219 -1.535156 12.074219 -5.1875 C 12.074219 -8.839844 9.28125 -10.578125 6.964844 -10.578125 Z M 6.585938 -2.074219 C 5.109375 -2.074219 3.574219 -3.113281 3.574219 -5.1875 C 3.574219 -7.265625 5.109375 -8.300781 6.585938 -8.300781 C 8.082031 -8.300781 9.597656 -7.265625 9.597656 -5.1875 C 9.597656 -3.113281 8.082031 -2.074219 6.585938 -2.074219 Z M 6.585938 -2.074219 "/></g></g></g><g fill="#ffefef" fill-opacity="1"><g transform="translate(346.081799, 192.411564)"><g><path d="M 2.175781 0.199219 C 2.972656 0.199219 3.652344 -0.398438 3.652344 -1.277344 C 3.652344 -2.15625 2.972656 -2.753906 2.175781 -2.753906 C 1.378906 -2.753906 0.699219 -2.15625 0.699219 -1.277344 C 0.699219 -0.398438 1.378906 0.199219 2.175781 0.199219 Z M 2.175781 0.199219 "/></g></g></g></svg>