<svg xmlns="http://www.w3.org/2000/svg" xmlns:xlink="http://www.w3.org/1999/xlink" width="1080" zoomAndPan="magnify" viewBox="0 0 810 809.999993" height="1080" preserveAspectRatio="xMidYMid meet" version="1.0"><defs><g/></defs><g fill="#d72638" fill-opacity="1"><g transform="translate(74.321355, 659.402837)"><g><path d="M 636.597656 -253.980469 C 636.597656 -416.425781 484.046875 -526.101562 331.492188 -526.101562 C 178.117188 -526.101562 24.738281 -416.425781 24.738281 -253.980469 C 24.738281 -90.707031 173.992188 17.316406 330.667969 17.316406 C 486.519531 17.316406 636.597656 -90.707031 636.597656 -253.980469 Z M 332.316406 -377.671875 C 399.109375 -377.671875 446.9375 -323.246094 446.9375 -253.980469 C 446.9375 -181.414062 397.460938 -131.113281 331.492188 -131.113281 C 264.699219 -131.113281 214.398438 -181.414062 214.398438 -253.980469 C 214.398438 -324.894531 266.347656 -377.671875 332.316406 -377.671875 Z M 332.316406 -377.671875 "/></g></g></g><path fill="#d72638" d="M 74.320312 380.382812 L 735.660156 380.382812 L 735.660156 462.445312 L 74.320312 462.445312 Z M 74.320312 380.382812 " fill-opacity="1" fill-rule="nonzero"/></svg>