<svg xmlns="http://www.w3.org/2000/svg" xmlns:xlink="http://www.w3.org/1999/xlink" width="500" zoomAndPan="magnify" viewBox="0 0 375 225" height="300" preserveAspectRatio="xMidYMid meet" version="1.0"><defs><g/></defs><g fill="#4d4545" fill-opacity="0.4"><g transform="translate(28.353113, 203.830242)"><g><path d="M 5.96875 0.199219 C 7.867188 0.199219 9.441406 -0.597656 10.441406 -2.277344 L 8.445312 -3.195312 C 7.847656 -2.515625 7.1875 -2.078125 5.988281 -2.078125 C 4.589844 -2.078125 3.054688 -3.132812 3.054688 -5.171875 C 3.054688 -7.246094 4.589844 -8.304688 5.988281 -8.304688 C 7.1875 -8.304688 7.847656 -7.847656 8.445312 -7.167969 L 10.402344 -8.085938 C 9.441406 -9.761719 7.847656 -10.582031 5.96875 -10.582031 C 3.613281 -10.582031 0.558594 -8.785156 0.558594 -5.171875 C 0.558594 -1.539062 3.613281 0.199219 5.96875 0.199219 Z M 5.96875 0.199219 "/></g></g></g><g fill="#4d4545" fill-opacity="0.4"><g transform="translate(43.465998, 203.830242)"><g><path d="M 7.265625 -10.542969 C 5.351562 -10.542969 4.074219 -9.324219 3.632812 -7.765625 L 3.632812 -10.382812 L 1.058594 -10.382812 L 1.058594 0 L 3.632812 0 L 3.632812 -4.613281 C 3.832031 -6.707031 5.410156 -8.085938 7.347656 -8.085938 C 7.527344 -8.085938 7.765625 -8.085938 7.984375 -8.046875 L 7.984375 -10.5 C 7.746094 -10.542969 7.527344 -10.542969 7.265625 -10.542969 Z M 7.265625 -10.542969 "/></g></g></g><g fill="#4d4545" fill-opacity="0.4"><g transform="translate(56.123279, 203.830242)"><g><path d="M 5.871094 -10.582031 C 3.535156 -10.582031 0.558594 -8.785156 0.558594 -5.171875 C 0.558594 -1.578125 3.453125 0.199219 6.050781 0.199219 C 8.046875 0.199219 9.324219 -0.417969 10.242188 -1.398438 L 8.824219 -2.773438 C 8.066406 -2.296875 7.464844 -1.976562 6.128906 -1.976562 C 4.652344 -1.976562 3.453125 -2.734375 3.113281 -4.253906 L 10.878906 -4.253906 C 11.460938 -8.785156 8.226562 -10.582031 5.871094 -10.582031 Z M 5.871094 -8.386719 C 7.027344 -8.386719 8.34375 -7.644531 8.585938 -6.128906 L 3.132812 -6.128906 C 3.492188 -7.625 4.710938 -8.386719 5.871094 -8.386719 Z M 5.871094 -8.386719 "/></g></g></g><g fill="#4d4545" fill-opacity="0.4"><g transform="translate(71.715293, 203.830242)"><g><path d="M 5.691406 0.199219 C 7.464844 0.199219 8.542969 -0.820312 8.882812 -1.476562 L 9.023438 -1.476562 L 9.023438 0 L 11.578125 0 L 11.578125 -10.382812 L 9.023438 -10.382812 L 9.023438 -8.902344 L 8.882812 -8.902344 C 8.542969 -9.5625 7.464844 -10.582031 5.691406 -10.582031 C 3.375 -10.582031 0.558594 -8.84375 0.558594 -5.191406 C 0.558594 -1.539062 3.375 0.199219 5.691406 0.199219 Z M 6.050781 -2.078125 C 4.550781 -2.078125 3.054688 -3.113281 3.054688 -5.191406 C 3.054688 -7.265625 4.550781 -8.304688 6.050781 -8.304688 C 7.546875 -8.304688 9.082031 -7.265625 9.082031 -5.191406 C 9.082031 -3.113281 7.546875 -2.078125 6.050781 -2.078125 Z M 6.050781 -2.078125 "/></g></g></g><g fill="#4d4545" fill-opacity="0.4"><g transform="translate(88.445268, 203.830242)"><g><path d="M 6.6875 -8.265625 L 6.6875 -10.382812 L 4.472656 -10.382812 L 4.472656 -13.035156 L 1.917969 -13.035156 L 1.917969 -10.382812 L 0.460938 -10.382812 L 0.460938 -8.265625 L 1.917969 -8.265625 L 1.917969 -2.574219 C 1.917969 -0.417969 3.132812 0.121094 4.75 0.121094 C 5.589844 0.121094 6.25 -0.0585938 6.6875 -0.28125 L 6.6875 -2.375 C 6.25 -2.234375 5.890625 -2.15625 5.46875 -2.15625 C 4.632812 -2.15625 4.472656 -2.617188 4.472656 -3.132812 L 4.472656 -8.265625 Z M 6.6875 -8.265625 "/></g></g></g><g fill="#4d4545" fill-opacity="0.4"><g transform="translate(99.864768, 203.830242)"><g><path d="M 5.871094 -10.582031 C 3.535156 -10.582031 0.558594 -8.785156 0.558594 -5.171875 C 0.558594 -1.578125 3.453125 0.199219 6.050781 0.199219 C 8.046875 0.199219 9.324219 -0.417969 10.242188 -1.398438 L 8.824219 -2.773438 C 8.066406 -2.296875 7.464844 -1.976562 6.128906 -1.976562 C 4.652344 -1.976562 3.453125 -2.734375 3.113281 -4.253906 L 10.878906 -4.253906 C 11.460938 -8.785156 8.226562 -10.582031 5.871094 -10.582031 Z M 5.871094 -8.386719 C 7.027344 -8.386719 8.34375 -7.644531 8.585938 -6.128906 L 3.132812 -6.128906 C 3.492188 -7.625 4.710938 -8.386719 5.871094 -8.386719 Z M 5.871094 -8.386719 "/></g></g></g><g fill="#4d4545" fill-opacity="0.4"><g transform="translate(115.456779, 203.830242)"><g><path d="M 2.175781 0.199219 C 2.976562 0.199219 3.652344 -0.398438 3.652344 -1.277344 C 3.652344 -2.15625 2.976562 -2.753906 2.175781 -2.753906 C 1.378906 -2.753906 0.699219 -2.15625 0.699219 -1.277344 C 0.699219 -0.398438 1.378906 0.199219 2.175781 0.199219 Z M 2.175781 0.199219 "/></g></g></g><g fill="#9b9696" fill-opacity="1"><g transform="translate(27.876672, 203.353801)"><g><path d="M 5.96875 0.199219 C 7.867188 0.199219 9.441406 -0.597656 10.441406 -2.277344 L 8.445312 -3.195312 C 7.847656 -2.515625 7.1875 -2.078125 5.988281 -2.078125 C 4.589844 -2.078125 3.054688 -3.132812 3.054688 -5.171875 C 3.054688 -7.246094 4.589844 -8.304688 5.988281 -8.304688 C 7.1875 -8.304688 7.847656 -7.847656 8.445312 -7.167969 L 10.402344 -8.085938 C 9.441406 -9.761719 7.847656 -10.582031 5.96875 -10.582031 C 3.613281 -10.582031 0.558594 -8.785156 0.558594 -5.171875 C 0.558594 -1.539062 3.613281 0.199219 5.96875 0.199219 Z M 5.96875 0.199219 "/></g></g></g><g fill="#9b9696" fill-opacity="1"><g transform="translate(42.989557, 203.353801)"><g><path d="M 7.265625 -10.542969 C 5.351562 -10.542969 4.074219 -9.324219 3.632812 -7.765625 L 3.632812 -10.382812 L 1.058594 -10.382812 L 1.058594 0 L 3.632812 0 L 3.632812 -4.613281 C 3.832031 -6.707031 5.410156 -8.085938 7.347656 -8.085938 C 7.527344 -8.085938 7.765625 -8.085938 7.984375 -8.046875 L 7.984375 -10.5 C 7.746094 -10.542969 7.527344 -10.542969 7.265625 -10.542969 Z M 7.265625 -10.542969 "/></g></g></g><g fill="#9b9696" fill-opacity="1"><g transform="translate(55.646839, 203.353801)"><g><path d="M 5.871094 -10.582031 C 3.535156 -10.582031 0.558594 -8.785156 0.558594 -5.171875 C 0.558594 -1.578125 3.453125 0.199219 6.050781 0.199219 C 8.046875 0.199219 9.324219 -0.417969 10.242188 -1.398438 L 8.824219 -2.773438 C 8.066406 -2.296875 7.464844 -1.976562 6.128906 -1.976562 C 4.652344 -1.976562 3.453125 -2.734375 3.113281 -4.253906 L 10.878906 -4.253906 C 11.460938 -8.785156 8.226562 -10.582031 5.871094 -10.582031 Z M 5.871094 -8.386719 C 7.027344 -8.386719 8.34375 -7.644531 8.585938 -6.128906 L 3.132812 -6.128906 C 3.492188 -7.625 4.710938 -8.386719 5.871094 -8.386719 Z M 5.871094 -8.386719 "/></g></g></g><g fill="#9b9696" fill-opacity="1"><g transform="translate(71.238852, 203.353801)"><g><path d="M 5.691406 0.199219 C 7.464844 0.199219 8.542969 -0.820312 8.882812 -1.476562 L 9.023438 -1.476562 L 9.023438 0 L 11.578125 0 L 11.578125 -10.382812 L 9.023438 -10.382812 L 9.023438 -8.902344 L 8.882812 -8.902344 C 8.542969 -9.5625 7.464844 -10.582031 5.691406 -10.582031 C 3.375 -10.582031 0.558594 -8.84375 0.558594 -5.191406 C 0.558594 -1.539062 3.375 0.199219 5.691406 0.199219 Z M 6.050781 -2.078125 C 4.550781 -2.078125 3.054688 -3.113281 3.054688 -5.191406 C 3.054688 -7.265625 4.550781 -8.304688 6.050781 -8.304688 C 7.546875 -8.304688 9.082031 -7.265625 9.082031 -5.191406 C 9.082031 -3.113281 7.546875 -2.078125 6.050781 -2.078125 Z M 6.050781 -2.078125 "/></g></g></g><g fill="#9b9696" fill-opacity="1"><g transform="translate(87.968828, 203.353801)"><g><path d="M 6.6875 -8.265625 L 6.6875 -10.382812 L 4.472656 -10.382812 L 4.472656 -13.035156 L 1.917969 -13.035156 L 1.917969 -10.382812 L 0.460938 -10.382812 L 0.460938 -8.265625 L 1.917969 -8.265625 L 1.917969 -2.574219 C 1.917969 -0.417969 3.132812 0.121094 4.75 0.121094 C 5.589844 0.121094 6.25 -0.0585938 6.6875 -0.28125 L 6.6875 -2.375 C 6.25 -2.234375 5.890625 -2.15625 5.46875 -2.15625 C 4.632812 -2.15625 4.472656 -2.617188 4.472656 -3.132812 L 4.472656 -8.265625 Z M 6.6875 -8.265625 "/></g></g></g><g fill="#9b9696" fill-opacity="1"><g transform="translate(99.388328, 203.353801)"><g><path d="M 5.871094 -10.582031 C 3.535156 -10.582031 0.558594 -8.785156 0.558594 -5.171875 C 0.558594 -1.578125 3.453125 0.199219 6.050781 0.199219 C 8.046875 0.199219 9.324219 -0.417969 10.242188 -1.398438 L 8.824219 -2.773438 C 8.066406 -2.296875 7.464844 -1.976562 6.128906 -1.976562 C 4.652344 -1.976562 3.453125 -2.734375 3.113281 -4.253906 L 10.878906 -4.253906 C 11.460938 -8.785156 8.226562 -10.582031 5.871094 -10.582031 Z M 5.871094 -8.386719 C 7.027344 -8.386719 8.34375 -7.644531 8.585938 -6.128906 L 3.132812 -6.128906 C 3.492188 -7.625 4.710938 -8.386719 5.871094 -8.386719 Z M 5.871094 -8.386719 "/></g></g></g><g fill="#9b9696" fill-opacity="1"><g transform="translate(114.980338, 203.353801)"><g><path d="M 2.175781 0.199219 C 2.976562 0.199219 3.652344 -0.398438 3.652344 -1.277344 C 3.652344 -2.15625 2.976562 -2.753906 2.175781 -2.753906 C 1.378906 -2.753906 0.699219 -2.15625 0.699219 -1.277344 C 0.699219 -0.398438 1.378906 0.199219 2.175781 0.199219 Z M 2.175781 0.199219 "/></g></g></g><g fill="#4d4545" fill-opacity="0.4"><g transform="translate(123.884341, 203.830242)"><g/></g></g><g fill="#4d4545" fill-opacity="0.4"><g transform="translate(132.808309, 203.830242)"><g><path d="M 9.023438 -14.113281 L 9.023438 -8.902344 L 8.882812 -8.902344 C 8.542969 -9.5625 7.464844 -10.582031 5.691406 -10.582031 C 3.375 -10.582031 0.558594 -8.84375 0.558594 -5.191406 C 0.558594 -1.539062 3.375 0.199219 5.691406 0.199219 C 7.464844 0.199219 8.542969 -0.820312 8.882812 -1.476562 L 9.023438 -1.476562 L 9.023438 0 L 11.578125 0 L 11.578125 -14.113281 Z M 6.050781 -2.078125 C 4.550781 -2.078125 3.054688 -3.113281 3.054688 -5.191406 C 3.054688 -7.265625 4.550781 -8.304688 6.050781 -8.304688 C 7.546875 -8.304688 9.082031 -7.265625 9.082031 -5.191406 C 9.082031 -3.113281 7.546875 -2.078125 6.050781 -2.078125 Z M 6.050781 -2.078125 "/></g></g></g><g fill="#4d4545" fill-opacity="0.4"><g transform="translate(149.538285, 203.830242)"><g><path d="M 5.871094 -10.582031 C 3.535156 -10.582031 0.558594 -8.785156 0.558594 -5.171875 C 0.558594 -1.578125 3.453125 0.199219 6.050781 0.199219 C 8.046875 0.199219 9.324219 -0.417969 10.242188 -1.398438 L 8.824219 -2.773438 C 8.066406 -2.296875 7.464844 -1.976562 6.128906 -1.976562 C 4.652344 -1.976562 3.453125 -2.734375 3.113281 -4.253906 L 10.878906 -4.253906 C 11.460938 -8.785156 8.226562 -10.582031 5.871094 -10.582031 Z M 5.871094 -8.386719 C 7.027344 -8.386719 8.34375 -7.644531 8.585938 -6.128906 L 3.132812 -6.128906 C 3.492188 -7.625 4.710938 -8.386719 5.871094 -8.386719 Z M 5.871094 -8.386719 "/></g></g></g><g fill="#4d4545" fill-opacity="0.4"><g transform="translate(165.130298, 203.830242)"><g><path d="M 4.53125 0.199219 C 6.667969 0.199219 8.542969 -0.898438 8.542969 -3.015625 C 8.542969 -4.890625 7.148438 -5.53125 5.589844 -6.089844 L 4.371094 -6.507812 C 3.691406 -6.769531 3.375 -7.105469 3.375 -7.585938 C 3.375 -8.164062 3.914062 -8.523438 4.550781 -8.523438 C 5.210938 -8.523438 5.710938 -8.183594 6.050781 -7.425781 L 8.183594 -8.003906 C 7.625 -9.5625 6.347656 -10.582031 4.453125 -10.582031 C 2.554688 -10.582031 0.898438 -9.464844 0.898438 -7.605469 C 0.898438 -6.25 1.777344 -5.210938 3.773438 -4.492188 L 4.972656 -4.074219 C 5.691406 -3.792969 6.050781 -3.433594 6.050781 -2.976562 C 6.050781 -2.335938 5.371094 -1.855469 4.53125 -1.855469 C 3.492188 -1.855469 2.816406 -2.515625 2.535156 -3.3125 L 0.5 -2.675781 C 0.917969 -0.878906 2.414062 0.199219 4.53125 0.199219 Z M 4.53125 0.199219 "/></g></g></g><g fill="#4d4545" fill-opacity="0.4"><g transform="translate(178.346572, 203.830242)"><g><path d="M 1.058594 -11.660156 L 3.632812 -11.660156 L 3.632812 -14.113281 L 1.058594 -14.113281 Z M 1.058594 0 L 3.632812 0 L 3.632812 -10.382812 L 1.058594 -10.382812 Z M 1.058594 0 "/></g></g></g><g fill="#4d4545" fill-opacity="0.4"><g transform="translate(187.110836, 203.830242)"><g><path d="M 9.023438 -10.382812 L 9.023438 -8.902344 L 8.882812 -8.902344 C 8.542969 -9.5625 7.464844 -10.582031 5.691406 -10.582031 C 3.375 -10.582031 0.558594 -8.84375 0.558594 -5.191406 C 0.558594 -1.539062 3.375 0.199219 5.691406 0.199219 C 7.464844 0.199219 8.542969 -0.820312 8.882812 -1.476562 L 9.023438 -1.476562 L 9.023438 0 C 9.023438 1 8.207031 1.976562 6.367188 1.976562 C 5.050781 1.976562 4.074219 1.71875 3.492188 1.378906 L 3.492188 3.492188 C 4.074219 3.832031 5.089844 4.113281 6.367188 4.113281 C 8.566406 4.113281 11.578125 3.132812 11.578125 0 L 11.578125 -10.382812 Z M 6.050781 -2.078125 C 4.550781 -2.078125 3.054688 -3.113281 3.054688 -5.191406 C 3.054688 -7.265625 4.550781 -8.304688 6.050781 -8.304688 C 7.546875 -8.304688 9.082031 -7.265625 9.082031 -5.191406 C 9.082031 -3.113281 7.546875 -2.078125 6.050781 -2.078125 Z M 6.050781 -2.078125 "/></g></g></g><g fill="#4d4545" fill-opacity="0.4"><g transform="translate(203.840808, 203.830242)"><g><path d="M 1.058594 0 L 3.632812 0 L 3.632812 -6.128906 C 3.671875 -6.867188 4.550781 -8.324219 6.128906 -8.324219 C 7.308594 -8.324219 8.363281 -7.625 8.363281 -5.828125 L 8.363281 0 L 10.941406 0 L 10.941406 -5.988281 C 10.941406 -9.242188 8.964844 -10.582031 7.066406 -10.582031 C 4.949219 -10.582031 3.832031 -8.945312 3.632812 -8.34375 L 3.632812 -10.382812 L 1.058594 -10.382812 Z M 1.058594 0 "/></g></g></g><g fill="#cb1f1f" fill-opacity="1"><g transform="translate(123.4079, 203.353801)"><g/></g></g><g fill="#cb1f1f" fill-opacity="1"><g transform="translate(132.331869, 203.353801)"><g><path d="M 9.023438 -14.113281 L 9.023438 -8.902344 L 8.882812 -8.902344 C 8.542969 -9.5625 7.464844 -10.582031 5.691406 -10.582031 C 3.375 -10.582031 0.558594 -8.84375 0.558594 -5.191406 C 0.558594 -1.539062 3.375 0.199219 5.691406 0.199219 C 7.464844 0.199219 8.542969 -0.820312 8.882812 -1.476562 L 9.023438 -1.476562 L 9.023438 0 L 11.578125 0 L 11.578125 -14.113281 Z M 6.050781 -2.078125 C 4.550781 -2.078125 3.054688 -3.113281 3.054688 -5.191406 C 3.054688 -7.265625 4.550781 -8.304688 6.050781 -8.304688 C 7.546875 -8.304688 9.082031 -7.265625 9.082031 -5.191406 C 9.082031 -3.113281 7.546875 -2.078125 6.050781 -2.078125 Z M 6.050781 -2.078125 "/></g></g></g><g fill="#cb1f1f" fill-opacity="1"><g transform="translate(149.061844, 203.353801)"><g><path d="M 5.871094 -10.582031 C 3.535156 -10.582031 0.558594 -8.785156 0.558594 -5.171875 C 0.558594 -1.578125 3.453125 0.199219 6.050781 0.199219 C 8.046875 0.199219 9.324219 -0.417969 10.242188 -1.398438 L 8.824219 -2.773438 C 8.066406 -2.296875 7.464844 -1.976562 6.128906 -1.976562 C 4.652344 -1.976562 3.453125 -2.734375 3.113281 -4.253906 L 10.878906 -4.253906 C 11.460938 -8.785156 8.226562 -10.582031 5.871094 -10.582031 Z M 5.871094 -8.386719 C 7.027344 -8.386719 8.34375 -7.644531 8.585938 -6.128906 L 3.132812 -6.128906 C 3.492188 -7.625 4.710938 -8.386719 5.871094 -8.386719 Z M 5.871094 -8.386719 "/></g></g></g><g fill="#cb1f1f" fill-opacity="1"><g transform="translate(164.653858, 203.353801)"><g><path d="M 4.53125 0.199219 C 6.667969 0.199219 8.542969 -0.898438 8.542969 -3.015625 C 8.542969 -4.890625 7.148438 -5.53125 5.589844 -6.089844 L 4.371094 -6.507812 C 3.691406 -6.769531 3.375 -7.105469 3.375 -7.585938 C 3.375 -8.164062 3.914062 -8.523438 4.550781 -8.523438 C 5.210938 -8.523438 5.710938 -8.183594 6.050781 -7.425781 L 8.183594 -8.003906 C 7.625 -9.5625 6.347656 -10.582031 4.453125 -10.582031 C 2.554688 -10.582031 0.898438 -9.464844 0.898438 -7.605469 C 0.898438 -6.25 1.777344 -5.210938 3.773438 -4.492188 L 4.972656 -4.074219 C 5.691406 -3.792969 6.050781 -3.433594 6.050781 -2.976562 C 6.050781 -2.335938 5.371094 -1.855469 4.53125 -1.855469 C 3.492188 -1.855469 2.816406 -2.515625 2.535156 -3.3125 L 0.5 -2.675781 C 0.917969 -0.878906 2.414062 0.199219 4.53125 0.199219 Z M 4.53125 0.199219 "/></g></g></g><g fill="#cb1f1f" fill-opacity="1"><g transform="translate(177.870131, 203.353801)"><g><path d="M 1.058594 -11.660156 L 3.632812 -11.660156 L 3.632812 -14.113281 L 1.058594 -14.113281 Z M 1.058594 0 L 3.632812 0 L 3.632812 -10.382812 L 1.058594 -10.382812 Z M 1.058594 0 "/></g></g></g><g fill="#cb1f1f" fill-opacity="1"><g transform="translate(186.634395, 203.353801)"><g><path d="M 9.023438 -10.382812 L 9.023438 -8.902344 L 8.882812 -8.902344 C 8.542969 -9.5625 7.464844 -10.582031 5.691406 -10.582031 C 3.375 -10.582031 0.558594 -8.84375 0.558594 -5.191406 C 0.558594 -1.539062 3.375 0.199219 5.691406 0.199219 C 7.464844 0.199219 8.542969 -0.820312 8.882812 -1.476562 L 9.023438 -1.476562 L 9.023438 0 C 9.023438 1 8.207031 1.976562 6.367188 1.976562 C 5.050781 1.976562 4.074219 1.71875 3.492188 1.378906 L 3.492188 3.492188 C 4.074219 3.832031 5.089844 4.113281 6.367188 4.113281 C 8.566406 4.113281 11.578125 3.132812 11.578125 0 L 11.578125 -10.382812 Z M 6.050781 -2.078125 C 4.550781 -2.078125 3.054688 -3.113281 3.054688 -5.191406 C 3.054688 -7.265625 4.550781 -8.304688 6.050781 -8.304688 C 7.546875 -8.304688 9.082031 -7.265625 9.082031 -5.191406 C 9.082031 -3.113281 7.546875 -2.078125 6.050781 -2.078125 Z M 6.050781 -2.078125 "/></g></g></g><g fill="#cb1f1f" fill-opacity="1"><g transform="translate(203.364368, 203.353801)"><g><path d="M 1.058594 0 L 3.632812 0 L 3.632812 -6.128906 C 3.671875 -6.867188 4.550781 -8.324219 6.128906 -8.324219 C 7.308594 -8.324219 8.363281 -7.625 8.363281 -5.828125 L 8.363281 0 L 10.941406 0 L 10.941406 -5.988281 C 10.941406 -9.242188 8.964844 -10.582031 7.066406 -10.582031 C 4.949219 -10.582031 3.832031 -8.945312 3.632812 -8.34375 L 3.632812 -10.382812 L 1.058594 -10.382812 Z M 1.058594 0 "/></g></g></g><g fill="#4d4545" fill-opacity="0.4"><g transform="translate(219.857482, 203.830242)"><g><path d="M 2.175781 0.199219 C 2.976562 0.199219 3.652344 -0.398438 3.652344 -1.277344 C 3.652344 -2.15625 2.976562 -2.753906 2.175781 -2.753906 C 1.378906 -2.753906 0.699219 -2.15625 0.699219 -1.277344 C 0.699219 -0.398438 1.378906 0.199219 2.175781 0.199219 Z M 2.175781 0.199219 "/></g></g></g><g fill="#4d4545" fill-opacity="1"><g transform="translate(219.381042, 203.353801)"><g><path d="M 2.175781 0.199219 C 2.976562 0.199219 3.652344 -0.398438 3.652344 -1.277344 C 3.652344 -2.15625 2.976562 -2.753906 2.175781 -2.753906 C 1.378906 -2.753906 0.699219 -2.15625 0.699219 -1.277344 C 0.699219 -0.398438 1.378906 0.199219 2.175781 0.199219 Z M 2.175781 0.199219 "/></g></g></g><g fill="#4d4545" fill-opacity="0.4"><g transform="translate(228.305822, 203.830242)"><g/></g></g><g fill="#cb1f1f" fill-opacity="1"><g transform="translate(227.829382, 203.353801)"><g/></g></g><g fill="#4d4545" fill-opacity="0.4"><g transform="translate(237.248065, 203.830242)"><g><path d="M 9.023438 -14.113281 L 9.023438 -8.902344 L 8.882812 -8.902344 C 8.542969 -9.5625 7.464844 -10.582031 5.691406 -10.582031 C 3.375 -10.582031 0.558594 -8.84375 0.558594 -5.191406 C 0.558594 -1.539062 3.375 0.199219 5.691406 0.199219 C 7.464844 0.199219 8.542969 -0.820312 8.882812 -1.476562 L 9.023438 -1.476562 L 9.023438 0 L 11.578125 0 L 11.578125 -14.113281 Z M 6.050781 -2.078125 C 4.550781 -2.078125 3.054688 -3.113281 3.054688 -5.191406 C 3.054688 -7.265625 4.550781 -8.304688 6.050781 -8.304688 C 7.546875 -8.304688 9.082031 -7.265625 9.082031 -5.191406 C 9.082031 -3.113281 7.546875 -2.078125 6.050781 -2.078125 Z M 6.050781 -2.078125 "/></g></g></g><g fill="#4d4545" fill-opacity="0.4"><g transform="translate(253.978041, 203.830242)"><g><path d="M 5.871094 -10.582031 C 3.535156 -10.582031 0.558594 -8.785156 0.558594 -5.171875 C 0.558594 -1.578125 3.453125 0.199219 6.050781 0.199219 C 8.046875 0.199219 9.324219 -0.417969 10.242188 -1.398438 L 8.824219 -2.773438 C 8.066406 -2.296875 7.464844 -1.976562 6.128906 -1.976562 C 4.652344 -1.976562 3.453125 -2.734375 3.113281 -4.253906 L 10.878906 -4.253906 C 11.460938 -8.785156 8.226562 -10.582031 5.871094 -10.582031 Z M 5.871094 -8.386719 C 7.027344 -8.386719 8.34375 -7.644531 8.585938 -6.128906 L 3.132812 -6.128906 C 3.492188 -7.625 4.710938 -8.386719 5.871094 -8.386719 Z M 5.871094 -8.386719 "/></g></g></g><g fill="#4d4545" fill-opacity="0.4"><g transform="translate(269.570054, 203.830242)"><g><path d="M 5.011719 0 L 7.347656 0 L 11.878906 -10.382812 L 9.242188 -10.382812 L 6.1875 -3.09375 L 3.132812 -10.382812 L 0.5 -10.382812 Z M 5.011719 0 "/></g></g></g><g fill="#4d4545" fill-opacity="0.4"><g transform="translate(286.020534, 203.830242)"><g><path d="M 5.871094 -10.582031 C 3.535156 -10.582031 0.558594 -8.785156 0.558594 -5.171875 C 0.558594 -1.578125 3.453125 0.199219 6.050781 0.199219 C 8.046875 0.199219 9.324219 -0.417969 10.242188 -1.398438 L 8.824219 -2.773438 C 8.066406 -2.296875 7.464844 -1.976562 6.128906 -1.976562 C 4.652344 -1.976562 3.453125 -2.734375 3.113281 -4.253906 L 10.878906 -4.253906 C 11.460938 -8.785156 8.226562 -10.582031 5.871094 -10.582031 Z M 5.871094 -8.386719 C 7.027344 -8.386719 8.34375 -7.644531 8.585938 -6.128906 L 3.132812 -6.128906 C 3.492188 -7.625 4.710938 -8.386719 5.871094 -8.386719 Z M 5.871094 -8.386719 "/></g></g></g><g fill="#4d4545" fill-opacity="0.4"><g transform="translate(301.612547, 203.830242)"><g><path d="M 1.058594 0 L 3.632812 0 L 3.632812 -14.113281 L 1.058594 -14.113281 Z M 1.058594 0 "/></g></g></g><g fill="#4d4545" fill-opacity="0.4"><g transform="translate(310.376812, 203.830242)"><g><path d="M 5.988281 0.199219 C 8.363281 0.199219 11.417969 -1.539062 11.417969 -5.171875 C 11.417969 -8.785156 8.363281 -10.582031 5.988281 -10.582031 C 3.613281 -10.582031 0.558594 -8.785156 0.558594 -5.171875 C 0.558594 -1.539062 3.613281 0.199219 5.988281 0.199219 Z M 5.988281 -2.078125 C 4.589844 -2.078125 3.054688 -3.132812 3.054688 -5.171875 C 3.054688 -7.246094 4.589844 -8.304688 5.988281 -8.304688 C 7.40625 -8.304688 8.945312 -7.246094 8.945312 -5.171875 C 8.945312 -3.132812 7.40625 -2.078125 5.988281 -2.078125 Z M 5.988281 -2.078125 "/></g></g></g><g fill="#4d4545" fill-opacity="0.4"><g transform="translate(326.447976, 203.830242)"><g><path d="M 6.96875 -10.582031 C 5.191406 -10.582031 4.09375 -9.5625 3.753906 -8.902344 L 3.632812 -8.902344 L 3.632812 -10.382812 L 1.058594 -10.382812 L 1.058594 3.792969 L 3.632812 3.792969 L 3.632812 -1.476562 L 3.753906 -1.476562 C 4.09375 -0.820312 5.191406 0.199219 6.96875 0.199219 C 9.285156 0.199219 12.078125 -1.539062 12.078125 -5.191406 C 12.078125 -8.84375 9.285156 -10.582031 6.96875 -10.582031 Z M 6.589844 -2.078125 C 5.109375 -2.078125 3.574219 -3.113281 3.574219 -5.191406 C 3.574219 -7.265625 5.109375 -8.304688 6.589844 -8.304688 C 8.085938 -8.304688 9.601562 -7.265625 9.601562 -5.191406 C 9.601562 -3.113281 8.085938 -2.078125 6.589844 -2.078125 Z M 6.589844 -2.078125 "/></g></g></g><g fill="#4d4545" fill-opacity="0.4"><g transform="translate(343.177948, 203.830242)"><g><path d="M 2.175781 0.199219 C 2.976562 0.199219 3.652344 -0.398438 3.652344 -1.277344 C 3.652344 -2.15625 2.976562 -2.753906 2.175781 -2.753906 C 1.378906 -2.753906 0.699219 -2.15625 0.699219 -1.277344 C 0.699219 -0.398438 1.378906 0.199219 2.175781 0.199219 Z M 2.175781 0.199219 "/></g></g></g><g fill="#101010" fill-opacity="1"><g transform="translate(236.771625, 203.353801)"><g><path d="M 9.023438 -14.113281 L 9.023438 -8.902344 L 8.882812 -8.902344 C 8.542969 -9.5625 7.464844 -10.582031 5.691406 -10.582031 C 3.375 -10.582031 0.558594 -8.84375 0.558594 -5.191406 C 0.558594 -1.539062 3.375 0.199219 5.691406 0.199219 C 7.464844 0.199219 8.542969 -0.820312 8.882812 -1.476562 L 9.023438 -1.476562 L 9.023438 0 L 11.578125 0 L 11.578125 -14.113281 Z M 6.050781 -2.078125 C 4.550781 -2.078125 3.054688 -3.113281 3.054688 -5.191406 C 3.054688 -7.265625 4.550781 -8.304688 6.050781 -8.304688 C 7.546875 -8.304688 9.082031 -7.265625 9.082031 -5.191406 C 9.082031 -3.113281 7.546875 -2.078125 6.050781 -2.078125 Z M 6.050781 -2.078125 "/></g></g></g><g fill="#101010" fill-opacity="1"><g transform="translate(253.5016, 203.353801)"><g><path d="M 5.871094 -10.582031 C 3.535156 -10.582031 0.558594 -8.785156 0.558594 -5.171875 C 0.558594 -1.578125 3.453125 0.199219 6.050781 0.199219 C 8.046875 0.199219 9.324219 -0.417969 10.242188 -1.398438 L 8.824219 -2.773438 C 8.066406 -2.296875 7.464844 -1.976562 6.128906 -1.976562 C 4.652344 -1.976562 3.453125 -2.734375 3.113281 -4.253906 L 10.878906 -4.253906 C 11.460938 -8.785156 8.226562 -10.582031 5.871094 -10.582031 Z M 5.871094 -8.386719 C 7.027344 -8.386719 8.34375 -7.644531 8.585938 -6.128906 L 3.132812 -6.128906 C 3.492188 -7.625 4.710938 -8.386719 5.871094 -8.386719 Z M 5.871094 -8.386719 "/></g></g></g><g fill="#101010" fill-opacity="1"><g transform="translate(269.093614, 203.353801)"><g><path d="M 5.011719 0 L 7.347656 0 L 11.878906 -10.382812 L 9.242188 -10.382812 L 6.1875 -3.09375 L 3.132812 -10.382812 L 0.5 -10.382812 Z M 5.011719 0 "/></g></g></g><g fill="#101010" fill-opacity="1"><g transform="translate(285.544093, 203.353801)"><g><path d="M 5.871094 -10.582031 C 3.535156 -10.582031 0.558594 -8.785156 0.558594 -5.171875 C 0.558594 -1.578125 3.453125 0.199219 6.050781 0.199219 C 8.046875 0.199219 9.324219 -0.417969 10.242188 -1.398438 L 8.824219 -2.773438 C 8.066406 -2.296875 7.464844 -1.976562 6.128906 -1.976562 C 4.652344 -1.976562 3.453125 -2.734375 3.113281 -4.253906 L 10.878906 -4.253906 C 11.460938 -8.785156 8.226562 -10.582031 5.871094 -10.582031 Z M 5.871094 -8.386719 C 7.027344 -8.386719 8.34375 -7.644531 8.585938 -6.128906 L 3.132812 -6.128906 C 3.492188 -7.625 4.710938 -8.386719 5.871094 -8.386719 Z M 5.871094 -8.386719 "/></g></g></g><g fill="#101010" fill-opacity="1"><g transform="translate(301.136107, 203.353801)"><g><path d="M 1.058594 0 L 3.632812 0 L 3.632812 -14.113281 L 1.058594 -14.113281 Z M 1.058594 0 "/></g></g></g><g fill="#101010" fill-opacity="1"><g transform="translate(309.900371, 203.353801)"><g><path d="M 5.988281 0.199219 C 8.363281 0.199219 11.417969 -1.539062 11.417969 -5.171875 C 11.417969 -8.785156 8.363281 -10.582031 5.988281 -10.582031 C 3.613281 -10.582031 0.558594 -8.785156 0.558594 -5.171875 C 0.558594 -1.539062 3.613281 0.199219 5.988281 0.199219 Z M 5.988281 -2.078125 C 4.589844 -2.078125 3.054688 -3.132812 3.054688 -5.171875 C 3.054688 -7.246094 4.589844 -8.304688 5.988281 -8.304688 C 7.40625 -8.304688 8.945312 -7.246094 8.945312 -5.171875 C 8.945312 -3.132812 7.40625 -2.078125 5.988281 -2.078125 Z M 5.988281 -2.078125 "/></g></g></g><g fill="#101010" fill-opacity="1"><g transform="translate(325.971535, 203.353801)"><g><path d="M 6.96875 -10.582031 C 5.191406 -10.582031 4.09375 -9.5625 3.753906 -8.902344 L 3.632812 -8.902344 L 3.632812 -10.382812 L 1.058594 -10.382812 L 1.058594 3.792969 L 3.632812 3.792969 L 3.632812 -1.476562 L 3.753906 -1.476562 C 4.09375 -0.820312 5.191406 0.199219 6.96875 0.199219 C 9.285156 0.199219 12.078125 -1.539062 12.078125 -5.191406 C 12.078125 -8.84375 9.285156 -10.582031 6.96875 -10.582031 Z M 6.589844 -2.078125 C 5.109375 -2.078125 3.574219 -3.113281 3.574219 -5.191406 C 3.574219 -7.265625 5.109375 -8.304688 6.589844 -8.304688 C 8.085938 -8.304688 9.601562 -7.265625 9.601562 -5.191406 C 9.601562 -3.113281 8.085938 -2.078125 6.589844 -2.078125 Z M 6.589844 -2.078125 "/></g></g></g><g fill="#101010" fill-opacity="1"><g transform="translate(342.701508, 203.353801)"><g><path d="M 2.175781 0.199219 C 2.976562 0.199219 3.652344 -0.398438 3.652344 -1.277344 C 3.652344 -2.15625 2.976562 -2.753906 2.175781 -2.753906 C 1.378906 -2.753906 0.699219 -2.15625 0.699219 -1.277344 C 0.699219 -0.398438 1.378906 0.199219 2.175781 0.199219 Z M 2.175781 0.199219 "/></g></g></g><g fill="#cb1f1f" fill-opacity="1"><g transform="translate(114.840616, 169.293387)"><g><path d="M 142.644531 -58.113281 C 142.644531 -95.285156 107.738281 -120.378906 72.832031 -120.378906 C 37.738281 -120.378906 2.640625 -95.285156 2.640625 -58.113281 C 2.640625 -20.753906 36.792969 3.960938 72.644531 3.960938 C 108.304688 3.960938 142.644531 -20.753906 142.644531 -58.113281 Z M 73.019531 -86.417969 C 88.304688 -86.417969 99.246094 -73.964844 99.246094 -58.113281 C 99.246094 -41.511719 87.925781 -30 72.832031 -30 C 57.546875 -30 46.039062 -41.511719 46.039062 -58.113281 C 46.039062 -74.339844 57.925781 -86.417969 73.019531 -86.417969 Z M 73.019531 -86.417969 "/></g></g></g><path fill="#cb1f1f" d="M 114.839844 105.765625 L 260.132812 105.765625 L 260.132812 123.71875 L 114.839844 123.71875 Z M 114.839844 105.765625 " fill-opacity="1" fill-rule="nonzero"/></svg>